# xmcd
#
# Track frame offsets:
#	150
#	11368
#	27547
#	42183
#	57431
#	71557
#	84518
#	98420
#	113559
#	126582
#	138557
#	154595
#	170326
#	186792
#	202901
#	217494
#	231281
#	245248
#	260526
#	276874
#	293102
#	307234
#
# Disc length: 4301 seconds
#
# Revision: 1
# Processed by: cddbd v1.5.1PL0 Copyright (c) Steve Scherf et al.
# Submitted via: audiograbber 1.83.01
#
DISCID=4c10cb16
DTITLE=Various Artist - RC37
DYEAR=1996
DGENRE=Country
TTITLE0=Garth Brooks - It's Midnight Cinderella
TTITLE1=Lee Roy Parnell - Givin' Water To A Drowning Man
TTITLE2=Rhett Akins - Don't Get Me Started
TTITLE3=George Strait - Carried Away
TTITLE4=Ricochet - Daddy's Money
TTITLE5=Clay Walker - Only On Days That End In Y
TTITLE6=Tim McGraw - She Never Let's It Go To Her Heart
TTITLE7=Neal McCoy - Then You Can Tell Me Goodbye
TTITLE8=LeAnn Rimes - Blue
TTITLE9=Bryan White - So Much For Pretending
TTITLE10=Trace Adkins - There's A Girl In Texas
TTITLE11=Pam Tillis - It's Lonely Out There
TTITLE12=James Bonamy - I Don't Think I Will
TTITLE13=Brooks and Dunn - I Am That Man
TTITLE14=Wade Hayes - On A Good Night
TTITLE15=Blackhawk - Big Guitar
TTITLE16=Mindy McCready - Guys Do It All The Time
TTITLE17=Diamond Rio - That's What I Get For Loving You
TTITLE18=Patty Loveless - A Thousand Times A Day
TTITLE19=Rick Trevino - Learning As You Go
TTITLE20=Lonestar - Runnin' Away With My Heart
TTITLE21=Paul Brandt - My Heart Has A History
EXTD=
EXTT0=
EXTT1=
EXTT2=
EXTT3=
EXTT4=
EXTT5=
EXTT6=
EXTT7=
EXTT8=
EXTT9=
EXTT10=
EXTT11=
EXTT12=
EXTT13=
EXTT14=
EXTT15=
EXTT16=
EXTT17=
EXTT18=
EXTT19=
EXTT20=
EXTT21=
PLAYORDER=
